<svg xmlns="http://www.w3.org/2000/svg" width="2284" height="1406" viewBox="0 0 2284 1406" version="1.1"><path d="M 1158.500 10.130 C 1155.200 11.264, 1152.275 12.497, 1152 12.869 C 1151.725 13.242, 1150.150 14.394, 1148.500 15.431 C 1146.850 16.467, 1145.140 17.919, 1144.700 18.657 C 1144.260 19.396, 1143.360 20.003, 1142.700 20.007 C 1142.040 20.011, 1139.700 21.789, 1137.500 23.958 C 1135.300 26.127, 1133.182 27.924, 1132.794 27.951 C 1131.742 28.024, 1117.151 42.714, 1112.081 48.806 C 1109.651 51.725, 1106.727 56.013, 1105.582 58.337 C 1103.210 63.149, 1100.424 67.275, 1097.457 70.369 C 1093.201 74.809, 1088.284 81.625, 1086.994 84.875 C 1086.257 86.732, 1083.793 90.782, 1081.520 93.875 C 1079.246 96.969, 1076.086 101.893, 1074.497 104.818 C 1072.908 107.742, 1070.139 111.693, 1068.344 113.597 C 1066.483 115.570, 1064.780 118.657, 1064.383 120.779 C 1063.294 126.592, 1061.267 130.688, 1057.622 134.442 C 1055.705 136.416, 1053.193 140.799, 1051.767 144.655 C 1050.394 148.370, 1048.827 151.558, 1048.284 151.739 C 1047.742 151.919, 1044.886 149.802, 1041.937 147.034 C 1038.989 144.265, 1036.185 142, 1035.706 142 C 1034.739 142, 1028.639 137.240, 1019.389 129.267 C 1016.028 126.370, 1012.924 124, 1012.492 124 C 1012.060 124, 1009.648 122.312, 1007.132 120.250 C 1003.039 116.894, 978.344 100, 977.532 100 C 977.352 100, 974.242 98.200, 970.620 96 C 966.999 93.800, 963.633 92, 963.141 92 C 962.648 92, 961.719 91.366, 961.076 90.592 C 960.434 89.818, 958.466 88.455, 956.704 87.564 C 954.942 86.674, 952.825 85.545, 952 85.056 C 948.874 83.202, 930.633 76, 929.066 76 C 928.465 76, 927.191 75.588, 926.236 75.085 C 923.630 73.712, 912.274 71.207, 905.647 70.544 C 899.118 69.891, 888.784 72.014, 883.603 75.073 C 881.897 76.081, 879.642 78.502, 878.593 80.453 C 877.543 82.404, 876.374 84, 875.994 84 C 875.615 84, 874.448 85.911, 873.402 88.247 C 871.793 91.839, 871.518 94.732, 871.616 106.997 C 871.719 119.848, 872.032 122.385, 874.366 129.271 C 875.815 133.545, 877 137.500, 877 138.060 C 877 140.458, 887.923 167.821, 890.947 173 C 891.429 173.825, 894.224 179.225, 897.159 185 C 902.689 195.881, 914.816 217.124, 915.998 218 C 916.370 218.275, 917.959 220.750, 919.530 223.500 C 921.101 226.250, 923.650 230.065, 925.193 231.978 C 928.523 236.103, 928.759 238, 925.943 238 C 924.812 238, 919.750 239.988, 914.693 242.419 C 909.637 244.849, 902.800 248.090, 899.500 249.621 C 896.200 251.153, 893.261 252.744, 892.969 253.158 C 892.676 253.572, 889.751 255.124, 886.469 256.608 C 883.186 258.092, 879.375 260.087, 878 261.042 C 876.625 261.996, 871.919 264.697, 867.543 267.042 C 863.166 269.388, 857.566 272.588, 855.097 274.153 C 852.628 275.719, 850.022 277, 849.304 277 C 848.587 277, 848 277.367, 848 277.816 C 848 278.265, 846.219 279.633, 844.042 280.856 C 841.866 282.079, 837.621 285.087, 834.610 287.540 C 831.599 289.993, 828.844 292, 828.489 292 C 825.978 292, 792.027 324.179, 791.984 326.601 C 791.975 327.095, 790.625 329.023, 788.984 330.886 C 787.343 332.748, 786 334.903, 786 335.675 C 786 336.448, 785.100 338.844, 784 341 C 780.909 347.059, 781.174 359.270, 784.526 365.268 C 792.308 379.191, 809.360 389.185, 832.632 393.461 C 843.730 395.501, 852.663 396.534, 873.166 398.151 C 888.923 399.393, 900.362 399.004, 937.500 395.961 C 944.100 395.421, 952.650 394.871, 956.500 394.739 L 963.500 394.500 963.214 404 C 963.057 409.225, 962.477 415.186, 961.926 417.247 C 961.375 419.308, 960.504 426.508, 959.989 433.247 C 959.475 439.986, 958.601 448.425, 958.047 452 C 955.641 467.530, 957.623 506.825, 961.227 515.046 C 962.060 516.946, 963.343 520.478, 964.078 522.895 C 964.814 525.312, 967.460 530.098, 969.958 533.530 C 972.456 536.961, 974.950 540.489, 975.500 541.370 C 976.549 543.049, 982.061 545.100, 990.547 546.969 C 994.537 547.848, 996.735 547.780, 1001.047 546.647 C 1007.739 544.888, 1011.896 543.062, 1014.426 540.769 C 1015.486 539.808, 1017.286 538.740, 1018.426 538.394 C 1021.338 537.511, 1028.252 532.387, 1034.474 526.500 C 1037.381 523.750, 1040.953 520.681, 1042.412 519.679 C 1043.871 518.677, 1046.230 516.012, 1047.654 513.756 C 1049.078 511.500, 1052.115 507.594, 1054.403 505.077 C 1056.690 502.560, 1059.129 499.375, 1059.822 498 C 1060.514 496.625, 1063.007 493.436, 1065.361 490.913 C 1070.143 485.788, 1074.417 479.840, 1078.407 472.754 C 1079.877 470.144, 1083.311 465.326, 1086.040 462.048 C 1088.768 458.770, 1091 455.448, 1091 454.666 C 1091 453.885, 1091.658 452.699, 1092.461 452.032 C 1093.265 451.365, 1094.219 449.848, 1094.580 448.660 C 1094.942 447.472, 1096.181 444.475, 1097.334 442 C 1098.568 439.351, 1099.414 435.547, 1099.392 432.750 C 1099.371 430.137, 1099.529 428, 1099.744 428 C 1100.159 428, 1109.552 436.038, 1116.382 442.239 C 1118.647 444.295, 1121.990 446.691, 1123.810 447.564 C 1125.631 448.437, 1127.360 449.773, 1127.651 450.534 C 1127.943 451.294, 1130.134 453.061, 1132.520 454.459 C 1134.906 455.857, 1137.453 457.588, 1138.179 458.306 C 1139.964 460.069, 1151.723 468, 1152.551 468 C 1152.915 468, 1154.917 469.350, 1157 471 C 1159.083 472.650, 1161.066 474, 1161.405 474 C 1161.745 474, 1164.660 475.800, 1167.883 478 C 1171.106 480.200, 1174.096 482, 1174.527 482 C 1174.958 482, 1176.786 483.125, 1178.589 484.500 C 1180.392 485.875, 1182.545 487, 1183.374 487 C 1184.203 487, 1185.125 487.393, 1185.422 487.873 C 1185.942 488.716, 1192.642 492.099, 1202 496.245 C 1204.475 497.341, 1207.175 498.566, 1208 498.967 C 1208.825 499.368, 1213.842 500.926, 1219.148 502.429 C 1227.834 504.890, 1230.078 505.130, 1241.648 504.831 C 1253.795 504.518, 1254.725 504.347, 1258.609 501.711 C 1263.450 498.424, 1268.433 491.816, 1270.608 485.799 C 1272.826 479.662, 1272.527 463.821, 1269.972 452.113 C 1268.170 443.857, 1265.959 437.076, 1260.317 422.500 C 1258.019 416.563, 1241.779 383.981, 1240.824 383.391 C 1240.371 383.111, 1240 382.167, 1240 381.294 C 1240 380.421, 1238.425 377.784, 1236.500 375.435 C 1234.575 373.085, 1233 370.898, 1233 370.574 C 1233 369.356, 1222.579 351.418, 1220.757 349.500 C 1219.712 348.400, 1217.996 346.150, 1216.943 344.500 C 1215.890 342.850, 1214.460 340.605, 1213.764 339.511 C 1213.069 338.418, 1211.713 336.445, 1210.750 335.127 C 1208.286 331.753, 1208.569 330.137, 1211.750 329.409 C 1218.269 327.919, 1223.369 325.932, 1238.500 318.988 C 1240.700 317.978, 1244.294 316.421, 1246.486 315.528 C 1248.679 314.635, 1251.379 313.080, 1252.486 312.072 C 1253.594 311.064, 1256.300 309.632, 1258.500 308.889 C 1263.900 307.067, 1287.163 295.210, 1294.062 290.764 C 1297.121 288.792, 1302.296 285.747, 1305.562 283.997 C 1312.092 280.499, 1330.913 268.197, 1332.500 266.390 C 1333.050 265.764, 1336.875 262.989, 1341 260.224 C 1345.125 257.458, 1349.239 254.364, 1350.142 253.348 C 1351.045 252.332, 1356.296 247.450, 1361.811 242.500 C 1367.326 237.550, 1371.875 232.972, 1371.919 232.327 C 1371.964 231.681, 1373.483 229.206, 1375.295 226.827 C 1378.938 222.044, 1383 214.178, 1383 211.907 C 1383 211.103, 1383.730 209.402, 1384.623 208.128 C 1389.891 200.606, 1383.129 182.726, 1372.128 175.091 C 1366.348 171.079, 1364.697 170.078, 1362 168.947 C 1360.625 168.370, 1357.799 167.021, 1355.719 165.949 C 1353.640 164.877, 1351.023 164, 1349.903 164 C 1348.784 164, 1346.941 163.503, 1345.806 162.896 C 1343.131 161.464, 1323.148 158.054, 1311 156.956 C 1293.198 155.347, 1255.276 156.009, 1221 158.527 C 1211.063 159.257, 1208.432 159.872, 1205.549 162.140 C 1204.089 163.289, 1202.615 163.948, 1202.272 163.606 C 1201.930 163.263, 1202.215 160.175, 1202.905 156.742 C 1206.247 140.119, 1207.292 132.291, 1208.079 118 C 1208.548 109.475, 1209.232 97.325, 1209.598 91 C 1209.980 84.399, 1209.734 72.044, 1209.020 62 C 1207.425 39.561, 1204.480 29.565, 1195.651 16.610 C 1194.193 14.471, 1193 12.345, 1193 11.886 C 1193 7.613, 1169.327 6.408, 1158.500 10.130 M 1143.455 48.501 C 1140.126 49.963, 1121 66.607, 1121 68.042 C 1121 69.575, 1114.861 76, 1113.396 76 C 1112.628 76, 1112 76.589, 1112 77.310 C 1112 78.464, 1106.682 85.361, 1100.943 91.651 C 1099.864 92.834, 1098.268 95.534, 1097.397 97.651 C 1096.526 99.768, 1094.801 102.625, 1093.562 104 C 1092.324 105.375, 1090.043 109.551, 1088.493 113.279 C 1086.943 117.008, 1084.658 121.156, 1083.415 122.497 C 1082.172 123.838, 1080.865 125.850, 1080.510 126.968 C 1080.155 128.085, 1079.446 129, 1078.933 129 C 1078.420 129, 1078 129.489, 1078 130.087 C 1078 130.686, 1075.754 134.595, 1073.010 138.776 C 1070.265 142.957, 1067.760 147.980, 1067.443 149.939 C 1066.067 158.424, 1065.796 159.054, 1062.876 160.564 L 1059.918 162.094 1065.264 167.297 C 1068.204 170.159, 1072.266 173.813, 1074.291 175.419 C 1076.316 177.024, 1078.234 179.162, 1078.554 180.169 C 1079.458 183.020, 1086.798 182.507, 1102.430 178.500 C 1109.941 176.575, 1117.633 175, 1119.523 175 C 1121.413 175, 1124.656 174.373, 1126.730 173.606 C 1128.803 172.839, 1133.875 171.662, 1138 170.991 C 1142.125 170.319, 1148.068 169.093, 1151.207 168.265 C 1156.654 166.829, 1160.549 166.877, 1164.144 168.425 C 1165.906 169.183, 1165.707 170.008, 1167.869 153 C 1168.394 148.875, 1169.313 144.233, 1169.911 142.685 C 1170.510 141.137, 1171 135.293, 1171 129.699 C 1171 124.106, 1171.711 114.684, 1172.579 108.761 C 1173.905 99.723, 1173.993 95.026, 1173.133 79.517 C 1172.187 62.478, 1171.908 60.699, 1169.545 56.667 C 1168.135 54.262, 1166.199 51.630, 1165.241 50.819 C 1160.988 47.218, 1149.226 45.966, 1143.455 48.501 M 893.851 74.010 C 887.632 75.573, 882.212 78.983, 879.846 82.821 C 872.893 94.101, 871.528 103.059, 874.487 118 C 876.342 127.371, 879.742 139.551, 881.604 143.500 C 882.382 145.150, 883.433 147.850, 883.940 149.500 C 889.880 168.853, 915.825 215.673, 936.978 245.211 C 940.015 249.452, 944.075 255.198, 946 257.980 C 947.925 260.762, 952.338 266.742, 955.807 271.269 C 959.275 275.796, 963.311 281.075, 964.775 283 C 966.239 284.925, 968.576 287.901, 969.968 289.614 C 971.361 291.327, 973.625 294.209, 975 296.019 C 976.375 297.829, 979.750 301.921, 982.500 305.112 C 985.250 308.303, 988.400 312.015, 989.500 313.361 C 999.023 325.011, 1011.885 339.647, 1018.508 346.371 C 1022.913 350.842, 1027.988 356.382, 1029.788 358.681 C 1032.724 362.434, 1071.780 400.214, 1080.137 407.386 C 1081.987 408.973, 1089.171 415.273, 1096.101 421.386 C 1107.806 431.709, 1127.527 447.723, 1134.500 452.567 C 1136.150 453.714, 1141.440 457.419, 1146.255 460.803 C 1151.070 464.186, 1156.245 467.652, 1157.755 468.505 C 1159.265 469.358, 1162.975 471.843, 1166 474.027 C 1169.025 476.210, 1171.846 477.997, 1172.270 477.998 C 1172.693 477.999, 1174.900 479.174, 1177.173 480.609 C 1179.446 482.044, 1185.174 485.163, 1189.903 487.541 C 1213.750 499.533, 1225.104 503, 1240.530 503 C 1250.353 503, 1251.255 502.825, 1255.790 500.034 C 1268.850 491.998, 1272.238 479.154, 1267.670 455 C 1266.785 450.325, 1265.393 444.700, 1264.575 442.500 C 1263.757 440.300, 1263.068 437.874, 1263.044 437.110 C 1263.020 436.345, 1262.149 433.870, 1261.109 431.610 C 1260.069 429.349, 1258.435 425.475, 1257.478 423 C 1254.539 415.399, 1240.949 387.981, 1235.670 379 C 1224.738 360.405, 1218.974 351.064, 1212.528 341.500 C 1208.822 336, 1204.927 329.813, 1203.874 327.750 C 1202.821 325.688, 1201.598 324, 1201.156 324 C 1200.714 324, 1198.169 320.738, 1195.499 316.750 C 1192.830 312.762, 1190.129 309.050, 1189.497 308.500 C 1187.903 307.113, 1174.879 289.784, 1174.277 288.250 C 1174.007 287.563, 1172.718 287, 1171.412 287 C 1168.295 287, 1167.032 291.272, 1169.381 293.869 C 1170.272 294.853, 1171 296.018, 1171 296.458 C 1171 296.898, 1172.463 298.940, 1174.250 300.996 C 1176.037 303.052, 1179.750 307.741, 1182.500 311.415 C 1185.250 315.090, 1188.625 319.599, 1190 321.435 C 1193.478 326.079, 1194.881 328.150, 1196.286 330.711 C 1196.954 331.926, 1200.487 337.326, 1204.138 342.711 C 1219.833 365.857, 1236.150 395.921, 1241.472 411.500 C 1242.976 415.900, 1244.537 419.950, 1244.942 420.500 C 1246.871 423.119, 1249.441 438.257, 1249.469 447.162 C 1249.498 456.321, 1249.342 457.049, 1246.470 461.162 C 1244.061 464.611, 1242.325 465.872, 1237.998 467.314 C 1233.263 468.893, 1231.512 468.988, 1224.528 468.049 C 1213.097 466.512, 1205.998 464.041, 1191.358 456.500 C 1175.058 448.104, 1169.796 444.945, 1159.669 437.470 C 1155.176 434.153, 1149.250 429.905, 1146.500 428.030 C 1141.037 424.306, 1137.244 421.360, 1127.146 412.995 C 1123.491 409.967, 1117.125 404.796, 1113 401.504 C 1090.700 383.708, 1046.114 339.198, 1020.261 308.925 C 1017.642 305.859, 1012.965 300.459, 1009.867 296.925 C 1000.333 286.053, 988.984 271.777, 982.315 262.270 C 980.563 259.772, 977.808 256.327, 976.193 254.615 C 974.578 252.902, 970.725 247.675, 967.631 243 C 964.536 238.325, 960.548 232.519, 958.768 230.098 C 956.989 227.676, 955.075 224.877, 954.516 223.877 C 953.957 222.877, 952.322 220.358, 950.883 218.279 C 949.444 216.201, 945.673 210, 942.503 204.500 C 939.334 199, 935.880 193.255, 934.829 191.734 C 932.753 188.731, 921.256 166.368, 919.286 161.500 C 918.618 159.850, 917.374 156.514, 916.522 154.086 C 915.670 151.659, 914.580 149.184, 914.099 148.586 C 913.618 147.989, 912.049 142.917, 910.613 137.316 C 907.604 125.587, 907.195 114.533, 909.526 107.925 C 911.409 102.589, 913.363 100.367, 918.462 97.765 C 921.752 96.086, 923.616 95.841, 929.462 96.317 C 937.028 96.934, 946.655 99.130, 951.500 101.344 C 953.150 102.099, 956.574 103.680, 959.110 104.858 C 961.645 106.036, 963.985 107, 964.309 107 C 964.634 107, 966.835 108.293, 969.200 109.874 C 971.565 111.455, 974.540 113.069, 975.812 113.461 C 981.522 115.222, 1023.687 144.801, 1034.364 154.536 C 1034.989 155.106, 1037.208 156.863, 1039.296 158.440 C 1043.213 161.399, 1044.261 161.206, 1045.437 157.306 C 1046.164 154.897, 1043.702 152.068, 1034.500 144.741 C 1031.750 142.551, 1027.085 138.676, 1024.134 136.129 C 1021.183 133.583, 1016.376 129.874, 1013.451 127.887 C 1010.527 125.900, 1006.218 122.750, 1003.877 120.887 C 998.779 116.831, 978.755 103.657, 969.090 98 C 967.681 97.175, 964.200 95.070, 961.356 93.322 C 954.087 88.854, 932.225 79.023, 929.500 78.997 C 928.950 78.992, 927.297 78.360, 925.827 77.593 C 919.885 74.493, 900.550 72.326, 893.851 74.010 M 918.929 100.976 C 914.047 103.557, 913.060 104.977, 911.478 111.696 C 910.066 117.693, 910.749 127.578, 912.980 133.446 C 913.541 134.922, 914 137.126, 914 138.342 C 914 139.559, 916.039 145.492, 918.531 151.527 C 921.022 157.562, 923.610 163.837, 924.281 165.471 C 926.080 169.856, 934.187 185.420, 934.973 186 C 935.346 186.275, 936.468 188.075, 937.467 190 C 939.924 194.733, 940.384 195.543, 944.729 202.795 C 956.489 222.425, 958.137 225, 958.940 225 C 959.353 225, 960.480 224.127, 961.446 223.060 C 963.224 221.095, 970.937 218, 974.056 218 C 974.990 218, 976.275 217.374, 976.910 216.609 C 977.545 215.844, 979.287 214.990, 980.782 214.711 C 982.277 214.432, 988.119 212.583, 993.764 210.602 C 999.410 208.621, 1004.642 207, 1005.392 207 C 1006.142 207, 1007.315 206.325, 1008 205.500 C 1008.685 204.675, 1010.427 203.994, 1011.872 203.987 C 1014.474 203.973, 1027.438 200.147, 1029.646 198.741 C 1030.419 198.248, 1030.527 196.838, 1029.980 194.411 C 1029.301 191.402, 1029.695 189.720, 1032.379 184.156 C 1034.146 180.495, 1036.850 175.613, 1038.390 173.308 C 1039.930 171.002, 1040.924 168.687, 1040.600 168.163 C 1040.277 167.638, 1040.684 166.952, 1041.506 166.636 C 1044.181 165.610, 1043.120 164.202, 1035.250 158.334 C 1030.987 155.156, 1027.275 152.312, 1027 152.014 C 1025.628 150.528, 1016.129 143.182, 1013.500 141.575 C 1011.850 140.566, 1009.375 138.716, 1008 137.463 C 1006.625 136.210, 1004.106 134.355, 1002.402 133.342 C 999.373 131.541, 988.759 124.620, 980.221 118.878 C 977.867 117.295, 975.370 116, 974.671 116 C 973.972 116, 972.972 115.581, 972.450 115.070 C 970.653 113.309, 955.493 105.827, 950 103.990 C 942.192 101.378, 930.763 98.992, 926.303 99.044 C 924.211 99.069, 920.893 99.938, 918.929 100.976 M 1260.992 158.308 C 1260.712 158.606, 1252.612 159.386, 1242.992 160.041 C 1233.371 160.696, 1224.375 161.334, 1223 161.460 C 1221.625 161.585, 1218.187 161.758, 1215.361 161.844 C 1212.133 161.942, 1209.434 162.651, 1208.103 163.750 C 1206.047 165.449, 1202.995 174.757, 1203.005 179.299 C 1203.008 180.509, 1202.243 183.638, 1201.307 186.252 C 1198.663 193.627, 1200.530 194.321, 1217 192.085 C 1224.265 191.098, 1263.941 188.577, 1269 188.780 C 1297.244 189.915, 1309.014 191.596, 1324.500 196.706 C 1333.522 199.684, 1336.071 201.045, 1340.835 205.430 C 1345.600 209.816, 1347 213.084, 1347 219.826 C 1347 226.119, 1343.721 235.327, 1340.540 237.967 C 1339.620 238.730, 1338.261 240.528, 1337.519 241.963 C 1336.777 243.397, 1330.757 249.469, 1324.142 255.455 C 1317.526 261.441, 1312.200 266.768, 1312.306 267.294 C 1312.413 267.820, 1311.236 268.322, 1309.692 268.411 C 1308.147 268.499, 1306.572 269.055, 1306.192 269.646 C 1305.811 270.237, 1304.037 271.470, 1302.250 272.386 C 1300.463 273.302, 1299 274.490, 1299 275.026 C 1299 275.562, 1298.475 276, 1297.834 276 C 1296.672 276, 1294.866 277.474, 1290.786 281.750 C 1289.605 282.988, 1287.921 284, 1287.042 284 C 1286.164 284, 1284.332 284.781, 1282.973 285.735 C 1280.171 287.700, 1270.681 292.831, 1264.072 295.953 C 1260.883 297.460, 1259.949 298.349, 1260.732 299.132 C 1261.761 300.161, 1263.731 299.463, 1270 295.852 C 1271.805 294.812, 1275.672 293.019, 1282.844 289.897 C 1285.783 288.617, 1288.719 286.812, 1289.368 285.884 C 1290.018 284.957, 1292.381 283.705, 1294.621 283.102 C 1296.860 282.499, 1300.557 280.655, 1302.837 279.003 C 1305.117 277.351, 1308.112 276, 1309.491 276 C 1310.871 276, 1312 275.550, 1312 275 C 1312 274.450, 1312.455 274, 1313.011 274 C 1313.568 274, 1316.660 272.200, 1319.883 270 C 1323.106 267.800, 1326.218 266, 1326.799 266 C 1327.380 266, 1328.804 264.793, 1329.965 263.318 C 1331.125 261.842, 1334.251 259.255, 1336.911 257.568 C 1360.036 242.899, 1375.644 225.653, 1381.531 208.267 C 1384.297 200.098, 1384.305 200.004, 1382.624 194.800 C 1378.479 181.964, 1372.689 176.470, 1355 168.588 C 1349.955 166.341, 1337.418 163.290, 1327.835 161.977 C 1323.282 161.354, 1319.232 160.644, 1318.836 160.399 C 1316.745 159.106, 1262.095 157.131, 1260.992 158.308 M 1057.200 168.200 C 1055.040 170.360, 1055.914 172.065, 1062.250 178.048 C 1068.327 183.788, 1070.135 184.653, 1073.418 183.393 C 1076.664 182.148, 1074.897 179.062, 1067.510 173.073 C 1063.390 169.733, 1059.655 167, 1059.210 167 C 1058.764 167, 1057.860 167.540, 1057.200 168.200 M 1142 173.123 C 1134.575 174.738, 1127.150 176.307, 1125.500 176.609 C 1116.641 178.230, 1099.357 182.274, 1097.859 183.075 C 1096.909 183.584, 1094.754 184, 1093.070 184 C 1091.386 184, 1087.419 184.845, 1084.254 185.877 C 1079.111 187.555, 1072.667 189.341, 1062 192.046 C 1055.278 193.751, 1036.472 199.220, 1033 200.479 C 1027.227 202.573, 1002.169 210.918, 992 214.133 C 986.775 215.785, 981.150 217.749, 979.500 218.499 C 977.850 219.249, 975.375 220.184, 974 220.576 C 972.625 220.969, 969.568 222.117, 967.206 223.128 C 963.203 224.842, 962.994 225.120, 964.120 227.233 C 966.572 231.833, 979.055 247.807, 980.687 248.433 C 982.236 249.028, 985.713 247.943, 998 243.031 C 1003.515 240.826, 1016.832 236.233, 1023.239 234.326 C 1035.059 230.808, 1037.813 229.969, 1042.500 228.459 C 1056.666 223.897, 1059.803 223, 1061.598 223 C 1062.674 223, 1064.443 222.384, 1065.527 221.630 C 1066.612 220.877, 1069.075 220.038, 1071 219.767 C 1072.925 219.495, 1080.765 217.636, 1088.423 215.636 C 1096.081 213.636, 1103.281 211.986, 1104.423 211.968 C 1105.565 211.951, 1107.374 211.276, 1108.441 210.468 C 1109.509 209.661, 1111.705 209, 1113.321 209 C 1114.937 209, 1119.689 208.137, 1123.880 207.083 C 1130.996 205.292, 1135.907 204.223, 1147 202.048 C 1154.312 200.615, 1154.687 200.279, 1156.339 193.683 C 1159.237 182.116, 1161.092 171.958, 1160.486 170.977 C 1159.607 169.555, 1157.020 169.855, 1142 173.123 M 1049.973 180.029 C 1047.172 183.027, 1043.242 191.575, 1044.216 192.549 C 1044.633 192.966, 1054.852 190.407, 1065.864 187.128 L 1068.228 186.424 1065.495 183.176 C 1062.404 179.503, 1058.131 177, 1054.951 177 C 1053.769 177, 1051.529 178.363, 1049.973 180.029 M 1195.711 191.622 C 1195.320 192.013, 1194.995 193.946, 1194.988 195.917 C 1194.982 197.887, 1194.345 201.750, 1193.573 204.500 C 1192.250 209.209, 1191.666 210.974, 1188.346 220.270 C 1187.606 222.344, 1187 225.162, 1187 226.534 C 1187 227.905, 1186.592 229.809, 1186.094 230.764 C 1185.596 231.719, 1184.433 235.425, 1183.510 239 C 1182.587 242.575, 1181.264 246.850, 1180.570 248.500 C 1179.877 250.150, 1178.402 255.100, 1177.293 259.500 C 1176.183 263.900, 1174.201 270.317, 1172.888 273.760 L 1170.500 280.019 1173.122 282.260 C 1174.564 283.492, 1177.887 287.762, 1180.505 291.750 C 1183.124 295.738, 1185.602 299, 1186.012 299 C 1186.422 299, 1187.324 300.367, 1188.016 302.038 C 1188.708 303.709, 1190.113 305.525, 1191.137 306.073 C 1192.162 306.622, 1193.001 307.617, 1193.001 308.285 C 1193.002 308.953, 1194.090 310.764, 1195.419 312.310 C 1196.748 313.855, 1198.460 316.060, 1199.223 317.209 L 1200.610 319.299 1203.260 316.649 C 1204.717 315.192, 1206.717 313.997, 1207.705 313.994 C 1208.692 313.990, 1210.789 313.315, 1212.364 312.494 C 1213.940 311.672, 1215.904 311, 1216.729 311 C 1217.554 311, 1220.315 309.931, 1222.865 308.625 C 1232.741 303.566, 1249.850 295.531, 1257.285 292.461 C 1261.568 290.693, 1265.843 288.579, 1266.785 287.765 C 1267.728 286.950, 1271.425 284.825, 1275 283.042 C 1278.575 281.258, 1282.175 279.393, 1283 278.897 C 1283.825 278.401, 1285.613 277.519, 1286.973 276.938 C 1288.333 276.356, 1290.133 275.228, 1290.973 274.431 C 1293.058 272.452, 1303.015 266, 1303.984 266 C 1304.414 266, 1304.996 265.125, 1305.275 264.056 C 1305.555 262.987, 1307.807 261.161, 1310.281 259.998 C 1315.004 257.778, 1326.673 248.215, 1329.716 244.071 C 1330.697 242.735, 1332.963 240.228, 1334.750 238.500 C 1336.537 236.772, 1338 234.990, 1338 234.540 C 1338 234.089, 1339.350 231.527, 1341 228.846 C 1343.344 225.037, 1344 222.809, 1344 218.665 C 1344 214.047, 1343.546 212.830, 1340.497 209.268 C 1335.420 203.337, 1323.523 198.225, 1308 195.305 C 1301.807 194.140, 1276.439 192.331, 1262 192.024 C 1255.952 191.896, 1228.035 193.833, 1215 195.286 C 1201.706 196.768, 1198.432 196.342, 1197.185 192.970 C 1196.766 191.837, 1196.103 191.231, 1195.711 191.622 M 1151 203.698 C 1149.625 203.924, 1146.475 204.729, 1144 205.486 C 1141.525 206.243, 1137.475 207.142, 1135 207.484 C 1126.926 208.599, 1114 212.276, 1114 213.457 C 1114 215.220, 1117.922 220.162, 1125.707 228.206 C 1129.589 232.218, 1134.784 237.637, 1137.251 240.250 C 1141.813 245.080, 1144 246.153, 1144 243.560 C 1144 242.768, 1145.350 239.518, 1147 236.337 C 1149.183 232.130, 1150 229.169, 1150 225.465 C 1150 222.087, 1150.839 218.635, 1152.494 215.205 C 1155.150 209.699, 1156.151 203.858, 1154.500 203.502 C 1153.950 203.384, 1152.375 203.472, 1151 203.698 M 1097 216.500 C 1095.625 217.286, 1093.042 217.945, 1091.261 217.965 C 1089.479 217.984, 1085.654 218.900, 1082.761 219.999 C 1079.867 221.099, 1076.600 221.999, 1075.500 221.999 C 1073.755 222, 1069.447 223.245, 1057.500 227.202 C 1055.850 227.749, 1052.925 228.534, 1051 228.947 C 1049.075 229.360, 1045.700 230.470, 1043.500 231.414 C 1041.300 232.357, 1035.958 233.980, 1031.628 235.020 C 1027.299 236.059, 1023.528 237.139, 1023.248 237.419 C 1022.968 237.699, 1023.232 239.857, 1023.834 242.214 C 1024.823 246.082, 1024.673 246.988, 1022.303 251.500 C 1020.858 254.250, 1019.321 258.075, 1018.888 260 C 1018.184 263.130, 1015.433 271.052, 1012.118 279.500 C 1011.470 281.150, 1010.727 283.105, 1010.465 283.845 C 1010.204 284.585, 1009.092 285.425, 1007.995 285.712 C 1005.341 286.406, 1005.472 288.439, 1008.314 290.677 C 1009.587 291.680, 1012.084 294.525, 1013.864 297 C 1016.833 301.130, 1024.403 309.546, 1040.740 326.879 C 1044.172 330.521, 1046.985 333.880, 1046.990 334.344 C 1046.996 334.809, 1052.846 341.034, 1059.990 348.179 L 1072.980 361.169 1077.240 357.095 C 1081.121 353.384, 1084.369 352.173, 1088.408 352.934 C 1091.371 353.492, 1103.495 350.715, 1104.644 349.215 C 1107.510 345.474, 1112 335.943, 1112 333.600 C 1112 332.235, 1112.388 330.878, 1112.863 330.585 C 1114.447 329.606, 1122.171 312.725, 1122.700 309.087 C 1123.179 305.792, 1130.837 285.153, 1132.008 284 C 1132.739 283.281, 1135.757 274.076, 1136.512 270.261 C 1136.865 268.480, 1137.569 266.766, 1138.077 266.452 C 1140.184 265.150, 1138.669 261.572, 1133.116 254.740 C 1129.879 250.758, 1125.492 245.875, 1123.366 243.890 C 1121.239 241.904, 1117.636 238.079, 1115.358 235.390 C 1113.080 232.700, 1108.878 228.070, 1106.020 225.100 C 1102.050 220.973, 1100.930 219.145, 1101.274 217.350 C 1101.787 214.664, 1100.619 214.431, 1097 216.500 M 1104.367 217.485 C 1103.993 218.461, 1108.915 224.379, 1118.715 234.735 C 1126.919 243.406, 1134.442 251.738, 1135.431 253.250 C 1136.420 254.762, 1137.837 256, 1138.580 256 C 1139.927 256, 1142 253.039, 1142 251.115 C 1142 249.663, 1133.185 239.450, 1121.058 226.849 C 1112.588 218.050, 1110.079 216, 1107.776 216 C 1106.188 216, 1104.686 216.654, 1104.367 217.485 M 1061.500 232.919 C 1051.663 234.700, 1039.791 242.678, 1032.198 252.608 C 1028.040 258.046, 1023 273.185, 1023 280.238 C 1023 287.296, 1026.224 299.810, 1029.295 304.674 C 1033.305 311.026, 1046.372 324, 1048.760 324 C 1049.937 324, 1051.260 324.609, 1051.700 325.354 C 1052.854 327.308, 1057.219 328.209, 1067.952 328.708 C 1073.805 328.979, 1079.136 328.670, 1081.952 327.895 C 1087.937 326.248, 1099 321.302, 1099 320.273 C 1099 319.828, 1100.091 318.797, 1101.424 317.982 C 1104.192 316.289, 1114 303.385, 1114 301.435 C 1114 300.724, 1114.616 299.527, 1115.368 298.775 C 1117.606 296.537, 1117.974 294.121, 1118.149 280.491 C 1118.304 268.428, 1118.130 267.096, 1115.717 261.850 C 1113.581 257.205, 1102.368 243.347, 1099.806 242.185 C 1099.425 242.012, 1097.450 240.550, 1095.419 238.935 C 1093.387 237.321, 1090.871 236, 1089.827 236 C 1088.784 236, 1086.933 235.373, 1085.715 234.607 C 1083.108 232.968, 1067.311 231.867, 1061.500 232.919 M 1057.500 237.261 C 1048.950 240.454, 1044.176 243.528, 1038.788 249.311 C 1032.613 255.939, 1028.426 264.889, 1026.930 274.663 C 1025.896 281.421, 1025.965 283.553, 1027.431 290.006 C 1029.959 301.136, 1031.953 304.735, 1040.167 313 C 1046.478 319.349, 1048.686 320.884, 1054.561 323 C 1060.445 325.120, 1063.173 325.490, 1072.500 325.431 C 1082.288 325.370, 1084.051 325.078, 1088.500 322.783 C 1107.037 313.219, 1116.830 297.027, 1115.811 277.626 C 1115.160 265.226, 1111.460 258.101, 1098.803 244.879 C 1094.151 240.019, 1082.580 235.940, 1072 235.430 C 1064.971 235.092, 1062.461 235.409, 1057.500 237.261 M 907.165 249.032 C 898.181 253.414, 890.659 257, 890.450 257 C 890.242 257, 885.667 259.546, 880.285 262.658 C 874.903 265.770, 868.475 269.386, 866 270.693 C 846.185 281.155, 822.750 298.263, 807.905 313.103 C 794.892 326.112, 791.805 330.254, 787.199 340.879 C 783.203 350.098, 783.119 354.529, 786.820 361.008 C 791.881 369.870, 796.642 374.720, 802.038 376.513 C 804.754 377.415, 807.233 378.569, 807.547 379.076 C 807.861 379.584, 810.459 380, 813.319 380 C 817.482 380, 819.059 380.499, 821.217 382.500 C 822.699 383.875, 824.945 384.968, 826.206 384.930 C 828.379 384.863, 828.394 384.814, 826.500 384 C 823.930 382.895, 824.888 382.757, 834 382.918 C 839.727 383.020, 841.086 382.797, 839.750 381.976 C 838.788 381.384, 837.997 380.360, 837.992 379.700 C 837.988 379.040, 835.910 376.475, 833.375 374 C 824.746 365.577, 823.741 363.733, 823.694 356.233 C 823.631 346.065, 826.735 340.280, 838.727 328.214 C 847.799 319.085, 867.104 304.200, 876.500 299.089 C 878.700 297.893, 883.425 295.135, 887 292.960 C 890.575 290.786, 904.413 283.600, 917.750 276.992 C 931.087 270.384, 942 264.569, 942 264.069 C 942 262.853, 931.349 247.221, 928.156 243.750 C 926.764 242.238, 925.148 241.014, 924.563 241.032 C 923.978 241.050, 916.149 244.650, 907.165 249.032 M 1059 242.500 C 1057.075 243.241, 1054.352 243.882, 1052.950 243.924 C 1049.694 244.021, 1048.007 245.724, 1047.972 248.950 C 1047.954 250.688, 1046.848 252.296, 1044.500 254 C 1040.792 256.691, 1040.249 258.132, 1042.302 259.836 C 1044.161 261.378, 1047.643 260.194, 1049.476 257.396 C 1051.680 254.033, 1053.728 254.414, 1055.437 258.502 L 1056.900 262.005 1051.859 267.046 C 1048.734 270.171, 1045.618 272.312, 1043.659 272.680 C 1041.922 273.007, 1039.725 273.946, 1038.777 274.768 C 1037.678 275.721, 1036.012 276.052, 1034.173 275.685 C 1030.490 274.948, 1029 276.471, 1029 280.972 C 1029 289.583, 1036.113 305.963, 1041.946 310.784 C 1048.746 316.403, 1051.329 315.789, 1052.442 308.287 C 1053.544 300.867, 1053.375 299.336, 1051.109 296.154 C 1048.116 291.950, 1048.289 286.512, 1051.481 284.420 C 1053.794 282.905, 1054.158 282.920, 1056.824 284.647 C 1058.397 285.666, 1061.780 287.847, 1064.342 289.493 C 1067.365 291.435, 1068.995 293.190, 1068.985 294.493 C 1068.977 295.597, 1065.577 300.255, 1061.428 304.845 C 1052.685 314.519, 1052.134 317.023, 1058 320.443 C 1060.886 322.125, 1063.165 322.471, 1071 322.415 L 1080.500 322.346 1089.748 317.110 C 1094.835 314.231, 1099.458 311.012, 1100.023 309.958 C 1101.077 307.987, 1100.432 303.402, 1098.809 301.333 C 1098.305 300.692, 1097.417 297.092, 1096.834 293.333 C 1096.252 289.575, 1095.263 286.169, 1094.638 285.765 C 1094.012 285.361, 1091.700 285.017, 1089.500 285 C 1084.534 284.962, 1083.347 284.231, 1082.451 280.660 C 1081.935 278.603, 1082.277 277.116, 1083.715 275.170 C 1084.799 273.701, 1086.023 270.703, 1086.434 268.508 C 1086.976 265.615, 1088.377 263.411, 1091.521 260.508 C 1093.908 258.303, 1096.150 255.326, 1096.504 253.891 C 1097.397 250.264, 1093.910 246.616, 1087.003 243.954 C 1081.822 241.956, 1081.449 241.935, 1080.503 243.581 C 1078.223 247.551, 1074.209 251.290, 1070.960 252.472 C 1069.057 253.164, 1066.825 254, 1066 254.330 C 1065.018 254.724, 1063.809 253.831, 1062.498 251.744 C 1061.397 249.991, 1059.481 248.051, 1058.241 247.433 C 1056.065 246.348, 1056.127 246.254, 1059.993 244.735 C 1062.197 243.869, 1064 242.675, 1064 242.080 C 1064 240.749, 1063.419 240.798, 1059 242.500 M 999 245.246 C 984.885 251.901, 984.089 252.179, 981.053 251.512 C 977.782 250.793, 977.064 251.921, 979.344 254.201 C 980.083 254.940, 981.834 257.335, 983.235 259.522 C 984.636 261.710, 987.217 265.075, 988.970 267 C 990.723 268.925, 992.894 271.738, 993.794 273.250 C 994.695 274.762, 995.695 276, 996.018 276 C 996.665 276, 998.828 267.590, 999.663 261.833 C 999.959 259.789, 1001.258 257.167, 1002.597 255.909 C 1003.919 254.667, 1005 252.885, 1005 251.948 C 1005 251.011, 1005.675 249.685, 1006.500 249 C 1007.325 248.315, 1008 246.685, 1008 245.378 C 1008 242.346, 1005.237 242.305, 999 245.246 M 944.652 266.250 C 944.238 267.900, 942.408 269.144, 937.794 270.913 C 928.528 274.466, 924.680 276.061, 923 277.045 C 922.175 277.528, 915.425 281.023, 908 284.812 C 900.575 288.601, 892.778 292.874, 890.674 294.307 C 888.570 295.740, 885.983 297.188, 884.924 297.524 C 883.866 297.860, 883 298.506, 883 298.959 C 883 299.412, 881.867 300.067, 880.483 300.415 C 877.850 301.076, 864.001 310.115, 858.466 314.786 C 856.697 316.279, 852.521 319.658, 849.186 322.296 C 839.130 330.251, 829.757 343.007, 828.502 350.444 C 827.733 355.002, 830.180 364.411, 832.237 364.807 C 833.169 364.987, 835.376 366.483, 837.141 368.132 C 838.906 369.781, 841.509 371.720, 842.925 372.442 C 847.110 374.575, 863.676 377.904, 875.500 378.989 C 889.429 380.267, 929.058 380.309, 932.371 379.049 C 933.747 378.526, 942.324 377.783, 951.433 377.399 L 967.993 376.699 969.611 371.100 C 970.501 368.020, 971.628 364.466, 972.115 363.203 C 972.602 361.940, 973 359.656, 973 358.128 C 973 356.600, 974.125 352.043, 975.500 348 C 976.875 343.957, 978 338.491, 978 335.853 C 978 329.841, 981.776 321.032, 985.360 318.684 L 988.017 316.943 985.761 313.721 C 984.519 311.950, 981.703 308.440, 979.502 305.922 C 977.301 303.404, 974.375 299.856, 973 298.036 C 971.625 296.217, 969.336 293.327, 967.914 291.614 C 958.742 280.571, 953.020 273.265, 949.614 268.250 C 946.332 263.418, 945.452 263.063, 944.652 266.250 M 1091.500 267.370 C 1089.551 268.813, 1089.576 268.881, 1092.500 270.038 C 1100.121 273.056, 1107.985 271.970, 1102.782 268.618 C 1099.126 266.263, 1093.791 265.673, 1091.500 267.370 M 1163.998 299.823 C 1163.326 302.396, 1161.281 307.434, 1159.454 311.021 C 1152.328 325.008, 1151.430 332.014, 1156.769 331.985 C 1159.326 331.972, 1165.952 330.077, 1170.500 328.058 C 1172.730 327.069, 1179.662 325.202, 1185 324.153 C 1188.366 323.491, 1188.424 323.408, 1186.500 321.970 C 1185.400 321.148, 1183.896 319.408, 1183.157 318.102 C 1182.418 316.796, 1179.268 312.371, 1176.157 308.268 C 1173.046 304.164, 1169.826 299.731, 1169.001 298.415 C 1166.533 294.476, 1165.304 294.821, 1163.998 299.823 M 995.532 328.250 C 995.309 328.938, 994.937 331.300, 994.705 333.500 C 994.474 335.700, 993.053 342, 991.548 347.500 C 987.936 360.699, 987.096 364.754, 987.044 369.231 C 986.984 374.325, 989.201 374.727, 1003.250 372.167 C 1016.088 369.828, 1027.162 368.087, 1031.417 367.739 C 1034.228 367.509, 1033.900 367.048, 1022.420 355.118 C 1015.867 348.308, 1009.505 341.264, 1008.282 339.465 C 1005.244 334.993, 997.890 327, 996.815 327 C 996.332 327, 995.755 327.563, 995.532 328.250 M 1191 338.216 C 1187.975 339.285, 1184.790 340.799, 1183.921 341.580 C 1183.053 342.361, 1181.738 343, 1181 343 C 1180.262 343, 1178.916 343.671, 1178.009 344.492 C 1176.504 345.854, 1154.026 352, 1150.550 352 C 1146.320 352, 1142.174 355.384, 1139.616 360.926 C 1138.177 364.042, 1137 367.151, 1137 367.835 C 1137 369.280, 1133.078 377.261, 1132.005 378 C 1131.606 378.275, 1130.478 380.075, 1129.500 382 C 1128.522 383.925, 1127.412 385.725, 1127.035 386 C 1126.658 386.275, 1125.034 389.138, 1123.425 392.362 C 1121.544 396.133, 1119.608 398.569, 1118 399.189 L 1115.500 400.154 1118.215 402.327 C 1119.708 403.522, 1123.214 406.300, 1126.007 408.500 C 1128.800 410.700, 1132.160 413.463, 1133.474 414.639 C 1137.298 418.063, 1146.964 425.297, 1154 430.003 C 1157.575 432.394, 1160.725 434.624, 1161 434.960 C 1161.474 435.538, 1166.281 438.701, 1177.500 445.819 C 1185.245 450.732, 1206.500 461, 1208.926 461 C 1210.121 461, 1212.452 461.699, 1214.105 462.554 C 1215.758 463.409, 1221.104 464.581, 1225.985 465.158 C 1234.281 466.139, 1235.108 466.067, 1238.684 464.058 C 1244.537 460.768, 1247 455.630, 1247 446.711 C 1247 442.645, 1246.330 437.109, 1245.511 434.409 C 1244.692 431.709, 1244.012 428.600, 1244.001 427.500 C 1243.990 426.400, 1242.827 423.025, 1241.416 420 C 1240.006 416.975, 1238.250 412.250, 1237.515 409.500 C 1236.061 404.064, 1233.027 397.232, 1229.964 392.500 C 1228.896 390.850, 1227.719 388.825, 1227.348 388 C 1226.978 387.175, 1225.848 385.306, 1224.837 383.846 C 1223.827 382.386, 1223 380.524, 1223 379.708 C 1223 378.892, 1221.409 375.912, 1219.465 373.086 C 1217.521 370.259, 1215.465 366.946, 1214.896 365.723 C 1213.032 361.719, 1210.485 357.435, 1206.460 351.538 C 1204.282 348.347, 1201.466 343.884, 1200.202 341.620 C 1198.938 339.356, 1197.588 337.227, 1197.202 336.888 C 1196.816 336.549, 1194.025 337.147, 1191 338.216 M 1091 366.557 C 1089.075 367.267, 1086.477 367.882, 1085.227 367.924 C 1083.074 367.996, 1083.035 368.124, 1084.491 370.346 C 1086.504 373.418, 1090.138 375.062, 1092.274 373.867 C 1093.735 373.049, 1095.818 366.407, 1094.870 365.586 C 1094.667 365.410, 1092.925 365.847, 1091 366.557 M 1040 379.904 C 1038.130 381.917, 1035.485 383.044, 1029.500 384.380 C 1025.100 385.362, 1019.191 386.809, 1016.368 387.596 C 1013.545 388.384, 1005.475 389.468, 998.433 390.005 C 991.392 390.543, 984.893 391.216, 983.991 391.503 C 980.450 392.627, 978.259 415.216, 977.883 454.500 C 977.689 474.776, 977.911 479.198, 979.313 483 C 980.225 485.475, 981.189 488.649, 981.455 490.053 C 981.721 491.457, 983.603 494.270, 985.636 496.303 C 989.054 499.721, 989.774 500, 995.167 500 C 998.375 500, 1001 499.643, 1001 499.207 C 1001 498.770, 1004.263 496.871, 1008.250 494.986 C 1016.197 491.229, 1027.545 480.868, 1030.474 474.696 C 1031.363 472.822, 1033.234 470.678, 1034.632 469.930 C 1036.029 469.182, 1038.584 466.754, 1040.309 464.535 C 1042.033 462.316, 1044.469 459.586, 1045.722 458.468 C 1046.975 457.351, 1048 455.903, 1048 455.252 C 1048 454.600, 1049.800 451.283, 1052 447.879 C 1054.200 444.475, 1056.006 441.197, 1056.012 440.595 C 1056.019 439.993, 1057.772 437.620, 1059.907 435.321 C 1062.041 433.023, 1064.910 428.748, 1066.282 425.821 C 1068.794 420.461, 1072.578 415.787, 1076.772 412.864 C 1079.093 411.247, 1078.978 408, 1076.601 408 C 1075.949 408, 1070.240 402.938, 1063.914 396.750 C 1052.441 385.528, 1045.306 378.916, 1043.470 377.801 C 1042.936 377.478, 1041.375 378.424, 1040 379.904 M 1702.455 547.455 C 1699.997 549.912, 1699.258 552, 1700.845 552 C 1701.310 552, 1702.505 551.100, 1703.500 550 C 1704.495 548.900, 1706.361 548, 1707.647 548 C 1708.932 548, 1710.545 548.900, 1711.232 550 C 1711.919 551.100, 1713.343 552, 1714.396 552 C 1716.125 552, 1716.165 551.831, 1714.807 550.250 C 1713.980 549.288, 1713.025 547.712, 1712.683 546.750 C 1711.708 544, 1705.481 544.428, 1702.455 547.455" stroke="none" fill="#d0b566" fill-rule="evenodd"/><path d="M 893.851 74.010 C 887.632 75.573, 882.212 78.983, 879.846 82.821 C 872.893 94.101, 871.528 103.059, 874.487 118 C 876.342 127.371, 879.742 139.551, 881.604 143.500 C 882.382 145.150, 883.433 147.850, 883.940 149.500 C 889.880 168.853, 915.825 215.673, 936.978 245.211 C 940.015 249.452, 944.075 255.198, 946 257.980 C 947.925 260.762, 952.338 266.742, 955.807 271.269 C 959.275 275.796, 963.311 281.075, 964.775 283 C 966.239 284.925, 968.576 287.901, 969.968 289.614 C 971.361 291.327, 973.625 294.209, 975 296.019 C 976.375 297.829, 979.750 301.921, 982.500 305.112 C 985.250 308.303, 988.400 312.015, 989.500 313.361 C 999.023 325.011, 1011.885 339.647, 1018.508 346.371 C 1022.913 350.842, 1027.988 356.382, 1029.788 358.681 C 1032.724 362.434, 1071.780 400.214, 1080.137 407.386 C 1081.987 408.973, 1089.171 415.273, 1096.101 421.386 C 1107.806 431.709, 1127.527 447.723, 1134.500 452.567 C 1136.150 453.714, 1141.440 457.419, 1146.255 460.803 C 1151.070 464.186, 1156.245 467.652, 1157.755 468.505 C 1159.265 469.358, 1162.975 471.843, 1166 474.027 C 1169.025 476.210, 1171.846 477.997, 1172.270 477.998 C 1172.693 477.999, 1174.900 479.174, 1177.173 480.609 C 1179.446 482.044, 1185.174 485.163, 1189.903 487.541 C 1213.750 499.533, 1225.104 503, 1240.530 503 C 1250.353 503, 1251.255 502.825, 1255.790 500.034 C 1268.850 491.998, 1272.238 479.154, 1267.670 455 C 1266.785 450.325, 1265.393 444.700, 1264.575 442.500 C 1263.757 440.300, 1263.068 437.874, 1263.044 437.110 C 1263.020 436.345, 1262.149 433.870, 1261.109 431.610 C 1260.069 429.349, 1258.435 425.475, 1257.478 423 C 1254.539 415.399, 1240.949 387.981, 1235.670 379 C 1224.738 360.405, 1218.974 351.064, 1212.528 341.500 C 1208.822 336, 1204.927 329.813, 1203.874 327.750 C 1202.821 325.688, 1201.598 324, 1201.156 324 C 1200.714 324, 1198.169 320.738, 1195.499 316.750 C 1192.830 312.762, 1190.129 309.050, 1189.497 308.500 C 1187.903 307.113, 1174.879 289.784, 1174.277 288.250 C 1174.007 287.563, 1172.718 287, 1171.412 287 C 1168.295 287, 1167.032 291.272, 1169.381 293.869 C 1170.272 294.853, 1171 296.018, 1171 296.458 C 1171 296.898, 1172.463 298.940, 1174.250 300.996 C 1176.037 303.052, 1179.750 307.741, 1182.500 311.415 C 1185.250 315.090, 1188.625 319.599, 1190 321.435 C 1193.478 326.079, 1194.881 328.150, 1196.286 330.711 C 1196.954 331.926, 1200.487 337.326, 1204.138 342.711 C 1219.833 365.857, 1236.150 395.921, 1241.472 411.500 C 1242.976 415.900, 1244.537 419.950, 1244.942 420.500 C 1246.871 423.119, 1249.441 438.257, 1249.469 447.162 C 1249.498 456.321, 1249.342 457.049, 1246.470 461.162 C 1244.061 464.611, 1242.325 465.872, 1237.998 467.314 C 1233.263 468.893, 1231.512 468.988, 1224.528 468.049 C 1213.097 466.512, 1205.998 464.041, 1191.358 456.500 C 1175.058 448.104, 1169.796 444.945, 1159.669 437.470 C 1155.176 434.153, 1149.250 429.905, 1146.500 428.030 C 1141.037 424.306, 1137.244 421.360, 1127.146 412.995 C 1123.491 409.967, 1117.125 404.796, 1113 401.504 C 1090.700 383.708, 1046.114 339.198, 1020.261 308.925 C 1017.642 305.859, 1012.965 300.459, 1009.867 296.925 C 1000.333 286.053, 988.984 271.777, 982.315 262.270 C 980.563 259.772, 977.808 256.327, 976.193 254.615 C 974.578 252.902, 970.725 247.675, 967.631 243 C 964.536 238.325, 960.548 232.519, 958.768 230.098 C 956.989 227.676, 955.075 224.877, 954.516 223.877 C 953.957 222.877, 952.322 220.358, 950.883 218.279 C 949.444 216.201, 945.673 210, 942.503 204.500 C 939.334 199, 935.880 193.255, 934.829 191.734 C 932.753 188.731, 921.256 166.368, 919.286 161.500 C 918.618 159.850, 917.374 156.514, 916.522 154.086 C 915.670 151.659, 914.580 149.184, 914.099 148.586 C 913.618 147.989, 912.049 142.917, 910.613 137.316 C 907.604 125.587, 907.195 114.533, 909.526 107.925 C 911.409 102.589, 913.363 100.367, 918.462 97.765 C 921.752 96.086, 923.616 95.841, 929.462 96.317 C 937.028 96.934, 946.655 99.130, 951.500 101.344 C 953.150 102.099, 956.574 103.680, 959.110 104.858 C 961.645 106.036, 963.985 107, 964.309 107 C 964.634 107, 966.835 108.293, 969.200 109.874 C 971.565 111.455, 974.540 113.069, 975.812 113.461 C 981.522 115.222, 1023.687 144.801, 1034.364 154.536 C 1034.989 155.106, 1037.208 156.863, 1039.296 158.440 C 1043.213 161.399, 1044.261 161.206, 1045.437 157.306 C 1046.164 154.897, 1043.702 152.068, 1034.500 144.741 C 1031.750 142.551, 1027.085 138.676, 1024.134 136.129 C 1021.183 133.583, 1016.376 129.874, 1013.451 127.887 C 1010.527 125.900, 1006.218 122.750, 1003.877 120.887 C 998.779 116.831, 978.755 103.657, 969.090 98 C 967.681 97.175, 964.200 95.070, 961.356 93.322 C 954.087 88.854, 932.225 79.023, 929.500 78.997 C 928.950 78.992, 927.297 78.360, 925.827 77.593 C 919.885 74.493, 900.550 72.326, 893.851 74.010 M 1260.992 158.308 C 1260.712 158.606, 1252.612 159.386, 1242.992 160.041 C 1233.371 160.696, 1224.375 161.334, 1223 161.460 C 1221.625 161.585, 1218.187 161.758, 1215.361 161.844 C 1212.133 161.942, 1209.434 162.651, 1208.103 163.750 C 1206.047 165.449, 1202.995 174.757, 1203.005 179.299 C 1203.008 180.509, 1202.243 183.638, 1201.307 186.252 C 1198.663 193.627, 1200.530 194.321, 1217 192.085 C 1224.265 191.098, 1263.941 188.577, 1269 188.780 C 1297.244 189.915, 1309.014 191.596, 1324.500 196.706 C 1333.522 199.684, 1336.071 201.045, 1340.835 205.430 C 1345.600 209.816, 1347 213.084, 1347 219.826 C 1347 226.119, 1343.721 235.327, 1340.540 237.967 C 1339.620 238.730, 1338.261 240.528, 1337.519 241.963 C 1336.777 243.397, 1330.757 249.469, 1324.142 255.455 C 1317.526 261.441, 1312.200 266.768, 1312.306 267.294 C 1312.413 267.820, 1311.236 268.322, 1309.692 268.411 C 1308.147 268.499, 1306.572 269.055, 1306.192 269.646 C 1305.811 270.237, 1304.037 271.470, 1302.250 272.386 C 1300.463 273.302, 1299 274.490, 1299 275.026 C 1299 275.562, 1298.475 276, 1297.834 276 C 1296.672 276, 1294.866 277.474, 1290.786 281.750 C 1289.605 282.988, 1287.921 284, 1287.042 284 C 1286.164 284, 1284.332 284.781, 1282.973 285.735 C 1280.171 287.700, 1270.681 292.831, 1264.072 295.953 C 1260.883 297.460, 1259.949 298.349, 1260.732 299.132 C 1261.761 300.161, 1263.731 299.463, 1270 295.852 C 1271.805 294.812, 1275.672 293.019, 1282.844 289.897 C 1285.783 288.617, 1288.719 286.812, 1289.368 285.884 C 1290.018 284.957, 1292.381 283.705, 1294.621 283.102 C 1296.860 282.499, 1300.557 280.655, 1302.837 279.003 C 1305.117 277.351, 1308.112 276, 1309.491 276 C 1310.871 276, 1312 275.550, 1312 275 C 1312 274.450, 1312.455 274, 1313.011 274 C 1313.568 274, 1316.660 272.200, 1319.883 270 C 1323.106 267.800, 1326.218 266, 1326.799 266 C 1327.380 266, 1328.804 264.793, 1329.965 263.318 C 1331.125 261.842, 1334.251 259.255, 1336.911 257.568 C 1360.036 242.899, 1375.644 225.653, 1381.531 208.267 C 1384.297 200.098, 1384.305 200.004, 1382.624 194.800 C 1378.479 181.964, 1372.689 176.470, 1355 168.588 C 1349.955 166.341, 1337.418 163.290, 1327.835 161.977 C 1323.282 161.354, 1319.232 160.644, 1318.836 160.399 C 1316.745 159.106, 1262.095 157.131, 1260.992 158.308 M 1057.200 168.200 C 1055.040 170.360, 1055.914 172.065, 1062.250 178.048 C 1068.327 183.788, 1070.135 184.653, 1073.418 183.393 C 1076.664 182.148, 1074.897 179.062, 1067.510 173.073 C 1063.390 169.733, 1059.655 167, 1059.210 167 C 1058.764 167, 1057.860 167.540, 1057.200 168.200 M 1142 173.123 C 1134.575 174.738, 1127.150 176.307, 1125.500 176.609 C 1116.641 178.230, 1099.357 182.274, 1097.859 183.075 C 1096.909 183.584, 1094.754 184, 1093.070 184 C 1091.386 184, 1087.419 184.845, 1084.254 185.877 C 1079.111 187.555, 1072.667 189.341, 1062 192.046 C 1055.278 193.751, 1036.472 199.220, 1033 200.479 C 1027.227 202.573, 1002.169 210.918, 992 214.133 C 986.775 215.785, 981.150 217.749, 979.500 218.499 C 977.850 219.249, 975.375 220.184, 974 220.576 C 972.625 220.969, 969.568 222.117, 967.206 223.128 C 963.203 224.842, 962.994 225.120, 964.120 227.233 C 966.572 231.833, 979.055 247.807, 980.687 248.433 C 982.236 249.028, 985.713 247.943, 998 243.031 C 1003.515 240.826, 1016.832 236.233, 1023.239 234.326 C 1035.059 230.808, 1037.813 229.969, 1042.500 228.459 C 1056.666 223.897, 1059.803 223, 1061.598 223 C 1062.674 223, 1064.443 222.384, 1065.527 221.630 C 1066.612 220.877, 1069.075 220.038, 1071 219.767 C 1072.925 219.495, 1080.765 217.636, 1088.423 215.636 C 1096.081 213.636, 1103.281 211.986, 1104.423 211.968 C 1105.565 211.951, 1107.374 211.276, 1108.441 210.468 C 1109.509 209.661, 1111.705 209, 1113.321 209 C 1114.937 209, 1119.689 208.137, 1123.880 207.083 C 1130.996 205.292, 1135.907 204.223, 1147 202.048 C 1154.312 200.615, 1154.687 200.279, 1156.339 193.683 C 1159.237 182.116, 1161.092 171.958, 1160.486 170.977 C 1159.607 169.555, 1157.020 169.855, 1142 173.123 M 1104.367 217.485 C 1103.993 218.461, 1108.915 224.379, 1118.715 234.735 C 1126.919 243.406, 1134.442 251.738, 1135.431 253.250 C 1136.420 254.762, 1137.837 256, 1138.580 256 C 1139.927 256, 1142 253.039, 1142 251.115 C 1142 249.663, 1133.185 239.450, 1121.058 226.849 C 1112.588 218.050, 1110.079 216, 1107.776 216 C 1106.188 216, 1104.686 216.654, 1104.367 217.485 M 1057.500 237.261 C 1048.950 240.454, 1044.176 243.528, 1038.788 249.311 C 1032.613 255.939, 1028.426 264.889, 1026.930 274.663 C 1025.896 281.421, 1025.965 283.553, 1027.431 290.006 C 1029.959 301.136, 1031.953 304.735, 1040.167 313 C 1046.478 319.349, 1048.686 320.884, 1054.561 323 C 1060.445 325.120, 1063.173 325.490, 1072.500 325.431 C 1082.288 325.370, 1084.051 325.078, 1088.500 322.783 C 1107.037 313.219, 1116.830 297.027, 1115.811 277.626 C 1115.160 265.226, 1111.460 258.101, 1098.803 244.879 C 1094.151 240.019, 1082.580 235.940, 1072 235.430 C 1064.971 235.092, 1062.461 235.409, 1057.500 237.261 M 907.165 249.032 C 898.181 253.414, 890.659 257, 890.450 257 C 890.242 257, 885.667 259.546, 880.285 262.658 C 874.903 265.770, 868.475 269.386, 866 270.693 C 846.185 281.155, 822.750 298.263, 807.905 313.103 C 794.892 326.112, 791.805 330.254, 787.199 340.879 C 783.203 350.098, 783.119 354.529, 786.820 361.008 C 791.881 369.870, 796.642 374.720, 802.038 376.513 C 804.754 377.415, 807.233 378.569, 807.547 379.076 C 807.861 379.584, 810.459 380, 813.319 380 C 817.482 380, 819.059 380.499, 821.217 382.500 C 822.699 383.875, 824.945 384.968, 826.206 384.930 C 828.379 384.863, 828.394 384.814, 826.500 384 C 823.930 382.895, 824.888 382.757, 834 382.918 C 839.727 383.020, 841.086 382.797, 839.750 381.976 C 838.788 381.384, 837.997 380.360, 837.992 379.700 C 837.988 379.040, 835.910 376.475, 833.375 374 C 824.746 365.577, 823.741 363.733, 823.694 356.233 C 823.631 346.065, 826.735 340.280, 838.727 328.214 C 847.799 319.085, 867.104 304.200, 876.500 299.089 C 878.700 297.893, 883.425 295.135, 887 292.960 C 890.575 290.786, 904.413 283.600, 917.750 276.992 C 931.087 270.384, 942 264.569, 942 264.069 C 942 262.853, 931.349 247.221, 928.156 243.750 C 926.764 242.238, 925.148 241.014, 924.563 241.032 C 923.978 241.050, 916.149 244.650, 907.165 249.032 M 1059 242.500 C 1057.075 243.241, 1054.352 243.882, 1052.950 243.924 C 1049.694 244.021, 1048.007 245.724, 1047.972 248.950 C 1047.954 250.688, 1046.848 252.296, 1044.500 254 C 1040.792 256.691, 1040.249 258.132, 1042.302 259.836 C 1044.161 261.378, 1047.643 260.194, 1049.476 257.396 C 1051.680 254.033, 1053.728 254.414, 1055.437 258.502 L 1056.900 262.005 1051.859 267.046 C 1048.734 270.171, 1045.618 272.312, 1043.659 272.680 C 1041.922 273.007, 1039.725 273.946, 1038.777 274.768 C 1037.678 275.721, 1036.012 276.052, 1034.173 275.685 C 1030.490 274.948, 1029 276.471, 1029 280.972 C 1029 289.583, 1036.113 305.963, 1041.946 310.784 C 1048.746 316.403, 1051.329 315.789, 1052.442 308.287 C 1053.544 300.867, 1053.375 299.336, 1051.109 296.154 C 1048.116 291.950, 1048.289 286.512, 1051.481 284.420 C 1053.794 282.905, 1054.158 282.920, 1056.824 284.647 C 1058.397 285.666, 1061.780 287.847, 1064.342 289.493 C 1067.365 291.435, 1068.995 293.190, 1068.985 294.493 C 1068.977 295.597, 1065.577 300.255, 1061.428 304.845 C 1052.685 314.519, 1052.134 317.023, 1058 320.443 C 1060.886 322.125, 1063.165 322.471, 1071 322.415 L 1080.500 322.346 1089.748 317.110 C 1094.835 314.231, 1099.458 311.012, 1100.023 309.958 C 1101.077 307.987, 1100.432 303.402, 1098.809 301.333 C 1098.305 300.692, 1097.417 297.092, 1096.834 293.333 C 1096.252 289.575, 1095.263 286.169, 1094.638 285.765 C 1094.012 285.361, 1091.700 285.017, 1089.500 285 C 1084.534 284.962, 1083.347 284.231, 1082.451 280.660 C 1081.935 278.603, 1082.277 277.116, 1083.715 275.170 C 1084.799 273.701, 1086.023 270.703, 1086.434 268.508 C 1086.976 265.615, 1088.377 263.411, 1091.521 260.508 C 1093.908 258.303, 1096.150 255.326, 1096.504 253.891 C 1097.397 250.264, 1093.910 246.616, 1087.003 243.954 C 1081.822 241.956, 1081.449 241.935, 1080.503 243.581 C 1078.223 247.551, 1074.209 251.290, 1070.960 252.472 C 1069.057 253.164, 1066.825 254, 1066 254.330 C 1065.018 254.724, 1063.809 253.831, 1062.498 251.744 C 1061.397 249.991, 1059.481 248.051, 1058.241 247.433 C 1056.065 246.348, 1056.127 246.254, 1059.993 244.735 C 1062.197 243.869, 1064 242.675, 1064 242.080 C 1064 240.749, 1063.419 240.798, 1059 242.500 M 1091.500 267.370 C 1089.551 268.813, 1089.576 268.881, 1092.500 270.038 C 1100.121 273.056, 1107.985 271.970, 1102.782 268.618 C 1099.126 266.263, 1093.791 265.673, 1091.500 267.370 M 1702.406 550.791 C 1700.705 552.281, 1698.093 555.975, 1696.603 559 C 1692.038 568.266, 1679.666 588.211, 1676.235 591.837 C 1675.539 592.572, 1673.742 594.822, 1672.241 596.837 C 1670.740 598.851, 1669.273 600.725, 1668.983 601 C 1668.692 601.275, 1667.624 602.802, 1666.609 604.394 C 1665.595 605.986, 1661.780 610.036, 1658.133 613.394 C 1654.485 616.752, 1649.993 620.962, 1648.150 622.750 C 1646.308 624.538, 1644.551 626, 1644.247 626 C 1643.942 626, 1641.321 628.138, 1638.421 630.750 C 1635.521 633.362, 1631.203 636.977, 1628.824 638.781 C 1626.446 640.586, 1623.150 643.097, 1621.500 644.361 C 1619.850 645.625, 1617.825 646.966, 1617 647.341 C 1616.175 647.715, 1614.312 648.805, 1612.859 649.761 C 1611.406 650.717, 1606.681 653.712, 1602.359 656.416 C 1598.037 659.119, 1592.250 662.779, 1589.500 664.549 C 1580.722 670.197, 1559.686 682, 1558.397 682 C 1557.713 682, 1555.881 683.042, 1554.327 684.316 C 1552.772 685.589, 1549.475 687.656, 1547 688.908 C 1544.525 690.161, 1541.600 691.957, 1540.500 692.901 C 1539.400 693.845, 1536.025 696.219, 1533 698.176 C 1507.715 714.538, 1494.734 723.423, 1490.353 727.367 C 1487.522 729.915, 1484.845 732, 1484.404 732 C 1483.520 732, 1481.648 733.685, 1468.753 746.087 C 1463.943 750.714, 1459.783 755.185, 1459.509 756.022 C 1459.234 756.859, 1457.223 759.334, 1455.038 761.522 C 1452.853 763.710, 1451.051 765.908, 1451.033 766.406 C 1451.015 766.904, 1449.875 768.786, 1448.500 770.589 C 1447.125 772.392, 1446 774.366, 1446 774.976 C 1446 775.586, 1444.200 778.522, 1442 781.500 C 1439.800 784.478, 1438 787.461, 1438 788.129 C 1438 788.796, 1437.375 790.053, 1436.612 790.921 C 1435.848 791.790, 1433.965 794.975, 1432.425 798 C 1430.886 801.025, 1428.817 804.566, 1427.826 805.869 C 1423.890 811.046, 1415.901 841.260, 1411.083 869.189 C 1403.954 910.511, 1401.833 939.670, 1401.348 1003 C 1400.976 1051.532, 1400.274 1065.608, 1398.324 1063.657 C 1396.501 1061.835, 1396.055 1020.581, 1396.031 851.500 C 1396.016 747.550, 1395.707 651.587, 1395.344 638.250 L 1394.684 614 1356.842 614 L 1319 614 1319 879.344 C 1319 1130.711, 1318.745 1166, 1316.931 1166 C 1315.918 1166, 1314.491 1159.054, 1312.618 1145 C 1311.329 1135.324, 1310.737 1092.492, 1308.888 875 C 1307.639 728.105, 1306.304 616.068, 1305.797 615.500 C 1304.819 614.406, 1243.720 613.469, 1238.357 614.466 L 1235.215 615.050 1234.617 633.275 C 1233.739 660.028, 1229.874 1074.718, 1229.871 1142.500 C 1229.869 1201.148, 1229.307 1213.357, 1226.404 1217.787 C 1222.139 1224.297, 1222.302 1233.199, 1220.866 916.713 C 1219.661 651.432, 1219.323 615.815, 1218 614.979 C 1216.365 613.945, 1147.012 613.622, 1143.250 614.630 L 1141 615.233 1140.990 921.367 C 1140.981 1218.813, 1140.783 1240.820, 1137.900 1266 C 1136.123 1281.515, 1135.022 1281.286, 1133.100 1265 C 1130.709 1244.739, 1129.821 1202.347, 1125.797 916.250 L 1121.546 614 946.996 614 C 791.889 614, 772.202 614.171, 770.259 615.531 C 768.075 617.061, 768.073 617.084, 767.864 660.281 C 767.606 713.652, 767.688 819.650, 768.059 913 C 768.213 951.775, 768.225 998.350, 768.086 1016.500 C 767.847 1047.740, 767.714 1049.847, 765.589 1056 C 764.355 1059.575, 762.543 1066.100, 761.562 1070.500 C 760.582 1074.900, 759.154 1079.978, 758.390 1081.784 C 757.625 1083.590, 757 1085.971, 757 1087.074 C 757 1088.178, 756.126 1090.300, 755.058 1091.790 C 753.990 1093.281, 752.329 1096.967, 751.367 1099.981 C 749.531 1105.737, 740.437 1121.444, 736.064 1126.414 C 727.540 1136.101, 723.216 1140.295, 718.882 1143.076 C 716.197 1144.799, 714 1146.603, 714 1147.085 C 714 1147.567, 712.893 1148.240, 711.541 1148.579 C 710.189 1148.919, 708.558 1149.827, 707.919 1150.598 C 707.279 1151.369, 705.901 1152, 704.858 1152 C 703.814 1152, 701.178 1153.125, 699 1154.500 C 696.822 1155.875, 694.392 1157, 693.601 1157 C 692.810 1157, 690.888 1157.636, 689.331 1158.413 C 681.771 1162.185, 672.004 1163.447, 651 1163.366 C 633.297 1163.297, 629.408 1162.991, 622.500 1161.127 C 611.998 1158.293, 600.178 1152.131, 589.646 1144 C 583.985 1139.630, 573.324 1127.476, 570.713 1122.418 C 569.838 1120.722, 567.520 1117.417, 565.561 1115.073 C 563.602 1112.729, 562 1110.155, 562 1109.354 C 562 1108.552, 560.425 1104.853, 558.500 1101.133 C 556.575 1097.413, 555 1094.017, 555 1093.586 C 555 1093.155, 554.342 1091.384, 553.537 1089.651 C 551.464 1085.186, 546 1067.922, 546 1065.838 C 546 1064.879, 545.552 1063.060, 545.004 1061.797 C 542.145 1055.206, 541.720 1029.326, 541.109 824.500 C 540.766 709.550, 540.377 615.388, 540.243 615.250 C 540.109 615.112, 537.785 615, 535.077 615 C 531.410 615, 529.432 615.591, 527.327 617.316 C 525.772 618.589, 522.621 620.590, 520.323 621.761 C 518.026 622.933, 515.326 624.343, 514.323 624.895 C 512.474 625.912, 496.167 633.546, 492.500 635.111 C 485.169 638.239, 465.778 641.342, 453.500 641.353 C 440.112 641.364, 416.445 639.509, 412.951 638.176 C 411.549 637.640, 407.274 636.870, 403.451 636.463 C 399.628 636.056, 393.575 634.870, 390 633.827 C 381.986 631.489, 364.227 627.139, 357.500 625.866 C 354.750 625.346, 351.375 624.527, 350 624.046 C 348.625 623.565, 343 621.986, 337.500 620.536 C 332 619.087, 325.250 617.282, 322.500 616.525 C 319.750 615.769, 314.678 614.868, 311.228 614.523 C 307.778 614.178, 303.278 613.357, 301.228 612.698 C 296.003 611.019, 265.406 612.144, 258 614.287 C 252.106 615.992, 246.125 618.136, 244.500 619.125 C 243.950 619.459, 241.025 621.098, 238 622.766 C 226.908 628.881, 215.701 636.976, 213.172 640.698 C 211.752 642.789, 208.842 646.750, 206.706 649.500 C 204.570 652.250, 200.843 657.200, 198.423 660.500 C 196.003 663.800, 193.414 667.175, 192.669 668 C 191.924 668.825, 190.638 670.850, 189.811 672.500 C 188.984 674.150, 187.179 677.525, 185.800 680 C 177.963 694.067, 168.361 714.622, 165.892 722.613 C 164.822 726.079, 163.508 729.186, 162.973 729.517 C 162.438 729.847, 162 730.994, 162 732.066 C 162 733.137, 160.383 738.103, 158.406 743.101 C 154.208 753.719, 151.364 768.943, 153.006 772.012 C 154.057 773.974, 155.283 774, 247.785 774.014 C 299.328 774.021, 342.452 774.283, 343.616 774.595 C 344.967 774.958, 346.128 776.490, 346.825 778.832 C 347.592 781.404, 347.937 823.998, 347.981 921.379 C 348.039 1049.369, 348.418 1071.631, 350.598 1075.158 C 350.912 1075.667, 351.545 1079.328, 352.003 1083.292 C 354.532 1105.177, 361.992 1138.600, 367.534 1152.872 C 372.700 1166.175, 376.538 1174.610, 379.651 1179.500 C 387.460 1191.766, 401.940 1211.875, 404.482 1213.985 C 405.467 1214.802, 407.341 1217.164, 408.648 1219.235 C 411.067 1223.067, 414.200 1226.178, 424 1234.481 C 427.025 1237.044, 430.400 1239.925, 431.500 1240.883 C 433.606 1242.716, 446.251 1251.792, 449.079 1253.500 C 449.990 1254.050, 452.032 1255.361, 453.618 1256.414 C 471.412 1268.232, 487.306 1278, 488.741 1278 C 489.280 1278, 491.246 1279.029, 493.110 1280.286 C 494.975 1281.544, 498.075 1283.214, 500 1283.999 C 501.925 1284.783, 505.300 1286.628, 507.500 1288.098 C 523.473 1298.772, 541.737 1310.430, 544.361 1311.627 C 549.760 1314.090, 554.275 1317.032, 561 1322.469 C 564.575 1325.359, 570.200 1329.729, 573.500 1332.181 C 582.162 1338.615, 585.838 1341.921, 601.099 1357 C 612.958 1368.718, 635 1394.452, 635 1396.580 C 635 1396.982, 636.796 1399.072, 638.990 1401.223 C 644.424 1406.550, 647.191 1406.175, 651.688 1399.500 C 653.541 1396.750, 655.870 1393.600, 656.864 1392.500 C 657.857 1391.400, 659.514 1389.150, 660.545 1387.500 C 661.576 1385.850, 665.025 1381.242, 668.210 1377.260 C 671.394 1373.278, 674 1369.743, 674 1369.405 C 674 1369.067, 679.288 1363.550, 685.750 1357.145 C 696.897 1346.098, 702.644 1341.311, 720 1328.623 C 724.125 1325.607, 728.175 1322.495, 729 1321.709 C 730.613 1320.171, 743.739 1312.269, 752.271 1307.700 C 755.147 1306.160, 761.550 1302.495, 766.500 1299.555 C 780.882 1291.016, 784.079 1289.233, 791.579 1285.572 C 795.473 1283.672, 799.200 1281.464, 799.862 1280.666 C 800.524 1279.868, 802.514 1278.638, 804.283 1277.933 C 806.052 1277.228, 808.755 1275.786, 810.289 1274.729 C 811.824 1273.672, 815.575 1271.476, 818.625 1269.848 C 821.676 1268.220, 826 1265.563, 828.236 1263.944 C 830.471 1262.325, 832.686 1261, 833.159 1261 C 834.465 1261, 852.598 1248.455, 860.500 1242.083 C 874.017 1231.185, 888.253 1217.351, 892.693 1210.799 C 894.072 1208.764, 896.211 1206.436, 897.447 1205.627 C 898.682 1204.817, 900.267 1202.770, 900.968 1201.077 C 901.669 1199.385, 902.606 1198, 903.050 1198 C 903.494 1198, 905.994 1194.513, 908.604 1190.250 C 911.214 1185.987, 914.099 1181.600, 915.014 1180.500 C 920.380 1174.049, 936.271 1122.982, 938.929 1103.648 C 939.523 1099.329, 940.257 1095.393, 940.561 1094.901 C 943.126 1090.751, 944.918 1037.962, 945.792 940.799 C 946.520 859.848, 946.577 858.856, 950.381 860.316 C 952.575 861.158, 952.590 863.964, 951.761 1107.500 C 951.151 1286.542, 951 1338.972, 951 1371.720 C 951 1372.385, 951.891 1373.407, 952.980 1373.989 C 954.363 1374.729, 1050.370 1375.043, 1271.230 1375.030 L 1587.500 1375.011 1589.250 1372.895 C 1590.903 1370.896, 1591 1360.608, 1591 1188.133 C 1591 1066.865, 1590.657 1004.313, 1589.979 1001.993 C 1588.593 997.247, 1588.579 923.236, 1589.965 919.593 C 1590.534 918.095, 1591.033 913.637, 1591.073 909.685 C 1591.143 902.777, 1591.436 900.357, 1593.934 886 C 1595.677 875.985, 1602.242 856.554, 1606.303 849.388 C 1612.802 837.920, 1623.540 825.022, 1630.403 820.439 C 1636.865 816.124, 1640.717 813.857, 1645 811.849 C 1647.475 810.689, 1650.299 809.338, 1651.275 808.846 C 1653.763 807.593, 1667.070 803.560, 1676 801.353 C 1682.140 799.836, 1687.308 799.508, 1704.501 799.545 L 1725.501 799.590 1739.501 803.410 C 1752.289 806.899, 1760.044 809.637, 1764 812.060 C 1764.825 812.566, 1767.212 813.905, 1769.304 815.037 C 1777.316 819.373, 1786.888 827.795, 1793 835.886 C 1794.375 837.707, 1796.414 840.390, 1797.531 841.848 C 1798.649 843.307, 1800.445 846.300, 1801.523 848.500 C 1802.601 850.700, 1804.126 853.295, 1804.912 854.268 C 1808.397 858.577, 1812.085 871.564, 1817.047 897 C 1818.729 905.622, 1820.399 934.618, 1820.187 951.500 C 1820.069 960.850, 1819.748 1057.282, 1819.474 1165.793 C 1819.129 1302.281, 1819.298 1363.689, 1820.023 1365.043 C 1821.753 1368.275, 1825.981 1367.450, 1832.684 1362.573 C 1839.365 1357.711, 1850.061 1352, 1852.485 1352 C 1853.333 1352, 1854.809 1351.582, 1855.764 1351.072 C 1866.504 1345.333, 1894.861 1342.945, 1916 1345.999 C 1920.675 1346.674, 1925.877 1347.322, 1927.560 1347.437 C 1929.243 1347.553, 1931.206 1348.009, 1931.922 1348.452 C 1932.638 1348.894, 1936.211 1349.618, 1939.862 1350.060 C 1949.527 1351.230, 1974.736 1356.249, 1981 1358.251 C 1982.925 1358.866, 1986.525 1359.712, 1989 1360.130 C 1991.475 1360.548, 1997.325 1361.825, 2002 1362.967 C 2015.753 1366.326, 2027.978 1369.024, 2036 1370.469 C 2062.686 1375.275, 2064.473 1375.454, 2085.500 1375.426 C 2103.867 1375.402, 2107.552 1375.123, 2114.887 1373.199 C 2119.500 1371.990, 2123.894 1371, 2124.651 1371 C 2125.408 1371, 2128.609 1369.717, 2131.764 1368.149 C 2151.699 1358.242, 2152.510 1357.693, 2163 1346.973 C 2171.108 1338.688, 2172.209 1337.397, 2176 1331.743 C 2177.375 1329.692, 2178.838 1328.011, 2179.250 1328.007 C 2179.662 1328.003, 2180 1327.474, 2180 1326.830 C 2180 1325.871, 2191.832 1299.934, 2195.085 1293.764 C 2195.588 1292.809, 2196 1291.318, 2196 1290.452 C 2196 1289.585, 2197.064 1286.542, 2198.365 1283.688 C 2199.666 1280.835, 2201.477 1275.800, 2202.391 1272.500 C 2203.305 1269.200, 2204.527 1265.150, 2205.106 1263.500 C 2205.686 1261.850, 2206.820 1257.802, 2207.626 1254.505 C 2208.432 1251.208, 2209.749 1247.505, 2210.554 1246.278 C 2212.691 1243.016, 2213.758 1223.863, 2211.887 1222.355 C 2211.124 1221.740, 2206.450 1220.894, 2201.500 1220.475 C 2191.972 1219.668, 2190.779 1219.669, 2089.614 1220.523 C 2031.593 1221.012, 2024.213 1220.899, 2019.863 1219.454 C 2016.084 1218.199, 2014.837 1217.242, 2014.277 1215.169 C 2013.393 1211.897, 2013.231 1006.687, 2014.034 906.938 C 2014.068 902.779, 2013.439 896.029, 2012.637 891.938 C 2011.835 887.847, 2010.945 880.384, 2010.661 875.352 C 2010.111 865.638, 2008.069 853.302, 2004.975 841 C 2003.937 836.875, 2002.365 830.575, 2001.482 827 C 1999.168 817.641, 1996.188 808.524, 1992.820 800.500 C 1988.484 790.167, 1988.088 789.367, 1982.048 778.730 C 1978.996 773.357, 1975.990 768.033, 1975.367 766.899 C 1974.744 765.765, 1972.903 763.411, 1971.276 761.668 C 1969.649 759.926, 1967.237 756.925, 1965.916 755 C 1961.622 748.741, 1943.476 731.670, 1933.493 724.500 C 1928.134 720.650, 1922.975 716.783, 1922.030 715.906 C 1921.086 715.030, 1916.755 712.356, 1912.406 709.964 C 1908.058 707.572, 1902.745 704.351, 1900.600 702.807 C 1898.455 701.263, 1896.236 700, 1895.670 700 C 1895.103 700, 1891.908 698.298, 1888.570 696.218 C 1879.583 690.618, 1877.706 689.585, 1863.500 682.416 C 1856.350 678.808, 1849.825 675.433, 1849 674.917 C 1848.175 674.401, 1845.925 673.281, 1844 672.429 C 1839.430 670.407, 1836.101 668.501, 1834.716 667.116 C 1834.102 666.502, 1832.967 666, 1832.194 666 C 1831.421 666, 1829.148 664.720, 1827.144 663.155 C 1825.140 661.590, 1820.350 658.783, 1816.500 656.917 C 1812.650 655.050, 1807.406 651.446, 1804.847 648.906 C 1802.287 646.367, 1798.912 644.016, 1797.347 643.682 C 1795.781 643.348, 1791.950 640.921, 1788.833 638.288 C 1785.716 635.654, 1780.843 631.700, 1778.002 629.500 C 1770.707 623.849, 1746.419 599.382, 1742.763 594 C 1741.081 591.525, 1738.702 588.375, 1737.476 587 C 1735.095 584.330, 1724 568.323, 1724 567.557 C 1724 567.306, 1722.712 565.165, 1721.137 562.800 C 1719.562 560.435, 1717.837 557.150, 1717.304 555.500 C 1716.764 553.830, 1715.489 552.336, 1714.428 552.131 C 1713.379 551.927, 1711.928 550.915, 1711.204 549.881 C 1709.367 547.258, 1706.048 547.601, 1702.406 550.791 M 1045.245 750.276 L 1038.990 753.432 1039.491 799.466 C 1039.767 824.785, 1040.225 902.139, 1040.509 971.364 C 1041.222 1145.141, 1043.377 1273.662, 1045.886 1292 L 1046.639 1297.500 1047.286 1289 C 1047.642 1284.325, 1048.845 1168.225, 1049.960 1031 C 1051.074 893.775, 1052.176 773.737, 1052.407 764.250 C 1052.639 754.763, 1052.529 747.027, 1052.164 747.060 C 1051.799 747.093, 1048.685 748.540, 1045.245 750.276" stroke="none" fill="#234b15" fill-rule="evenodd"/></svg>